<?xml version="1.0" encoding="utf-8"?>
<!-- Generator: Adobe Illustrator 19.2.1, SVG Export Plug-In . SVG Version: 6.00 Build 0)  -->
<svg version="1.1" id="Layer_1" xmlns="http://www.w3.org/2000/svg" xmlns:xlink="http://www.w3.org/1999/xlink" x="0px" y="0px"
	 width="79.5px" height="81.6px" viewBox="0 0 79.5 81.6" style="enable-background:new 0 0 79.5 81.6;" xml:space="preserve">
<style type="text/css">
	.st0{fill:#FFFFFF;}
</style>
<g>
	<g>
		<path class="st0" d="M35.9,5.3h4.8v-3c0-0.5,0-0.9-0.1-1c-0.1-0.1-0.2-0.2-0.3-0.3c-0.2-0.1-0.4-0.2-0.7-0.2h-0.4V0.5h4.4v0.3
			h-0.4c-0.2,0-0.5,0.1-0.7,0.2c-0.2,0.1-0.3,0.2-0.3,0.4c-0.1,0.2-0.1,0.5-0.1,1V9c0,0.5,0,0.9,0.1,1c0.1,0.1,0.2,0.2,0.3,0.3
			c0.2,0.1,0.5,0.2,0.7,0.2h0.4v0.3h-4.4v-0.3h0.4c0.4,0,0.7-0.1,0.9-0.4c0.1-0.2,0.2-0.6,0.2-1.2V5.9h-4.8V9c0,0.5,0,0.9,0.1,1
			c0.1,0.1,0.2,0.2,0.3,0.3c0.2,0.1,0.4,0.2,0.7,0.2h0.4v0.3H33v-0.3h0.4c0.4,0,0.7-0.1,0.9-0.4c0.1-0.2,0.2-0.6,0.2-1.2V2.3
			c0-0.5,0-0.9-0.1-1c-0.1-0.1-0.2-0.2-0.3-0.3c-0.2-0.1-0.5-0.2-0.7-0.2H33V0.5h4.4v0.3H37c-0.2,0-0.5,0.1-0.7,0.2
			C36.2,1,36.1,1.2,36,1.3c-0.1,0.2-0.1,0.5-0.1,1V5.3z"/>
		<path class="st0" d="M48.4,9.8c-0.7,0.6-1.2,0.9-1.3,1c-0.3,0.1-0.6,0.2-0.9,0.2c-0.5,0-0.9-0.2-1.2-0.5c-0.3-0.3-0.5-0.8-0.5-1.3
			c0-0.3,0.1-0.6,0.2-0.9c0.2-0.3,0.6-0.7,1.1-1c0.5-0.3,1.4-0.7,2.6-1.1V5.9c0-0.7-0.1-1.2-0.3-1.4c-0.2-0.3-0.5-0.4-1-0.4
			c-0.3,0-0.6,0.1-0.8,0.3c-0.2,0.2-0.3,0.4-0.3,0.6l0,0.4c0,0.2-0.1,0.4-0.2,0.5c-0.1,0.1-0.3,0.2-0.5,0.2c-0.2,0-0.3-0.1-0.5-0.2
			c-0.1-0.1-0.2-0.3-0.2-0.5c0-0.4,0.2-0.8,0.7-1.2c0.4-0.4,1.1-0.5,1.9-0.5c0.6,0,1.1,0.1,1.5,0.3c0.3,0.2,0.5,0.4,0.7,0.7
			c0.1,0.2,0.1,0.7,0.1,1.3v2.4c0,0.7,0,1.1,0,1.2c0,0.1,0.1,0.2,0.1,0.3C49.9,10,50,10,50.1,10c0.1,0,0.2,0,0.2-0.1
			c0.1-0.1,0.3-0.3,0.6-0.6v0.4c-0.6,0.8-1.1,1.1-1.6,1.1c-0.2,0-0.4-0.1-0.6-0.3C48.5,10.5,48.4,10.2,48.4,9.8z M48.4,9.3V6.7
			c-0.8,0.3-1.3,0.5-1.5,0.6c-0.4,0.2-0.7,0.5-0.9,0.7c-0.2,0.2-0.3,0.5-0.3,0.8c0,0.4,0.1,0.7,0.3,0.9c0.2,0.2,0.5,0.4,0.8,0.4
			C47.3,10.1,47.8,9.8,48.4,9.3z"/>
		<path class="st0" d="M53.8,0v9.3c0,0.4,0,0.7,0.1,0.9c0.1,0.1,0.2,0.2,0.3,0.3c0.1,0.1,0.4,0.1,0.7,0.1v0.3h-3.4v-0.3
			c0.3,0,0.5,0,0.7-0.1c0.1-0.1,0.2-0.2,0.3-0.3c0.1-0.2,0.1-0.4,0.1-0.9V2.9c0-0.8,0-1.3-0.1-1.5c0-0.2-0.1-0.3-0.2-0.4
			C52.2,1,52.1,1,52,1c-0.1,0-0.3,0-0.5,0.1l-0.1-0.3L53.5,0H53.8z"/>
		<path class="st0" d="M57.8,1.6v2.3h1.6v0.5h-1.6v4.5c0,0.5,0.1,0.8,0.2,0.9c0.1,0.2,0.3,0.2,0.5,0.2c0.2,0,0.3-0.1,0.5-0.2
			c0.2-0.1,0.3-0.3,0.4-0.5h0.3c-0.2,0.5-0.4,0.9-0.8,1.1c-0.3,0.2-0.7,0.4-1,0.4c-0.2,0-0.5-0.1-0.7-0.2c-0.2-0.1-0.4-0.3-0.5-0.6
			c-0.1-0.2-0.2-0.6-0.2-1.1V4.4h-1.1V4.1C55.7,4,56,3.8,56.3,3.6S56.8,3,57,2.6c0.1-0.2,0.3-0.5,0.5-1.1H57.8z"/>
		<path class="st0" d="M63.5,3.6c1.1,0,1.9,0.4,2.5,1.2c0.5,0.7,0.8,1.5,0.8,2.4c0,0.6-0.1,1.3-0.4,1.9c-0.3,0.6-0.7,1.1-1.2,1.4
			C64.6,10.9,64,11,63.4,11c-1.1,0-1.9-0.4-2.5-1.3c-0.5-0.7-0.8-1.5-0.8-2.4c0-0.6,0.2-1.3,0.5-1.9c0.3-0.6,0.7-1.1,1.3-1.4
			C62.4,3.8,62.9,3.6,63.5,3.6z M63.2,4.1c-0.3,0-0.5,0.1-0.8,0.2c-0.3,0.2-0.5,0.4-0.7,0.8c-0.2,0.4-0.3,0.9-0.3,1.5
			c0,1,0.2,1.9,0.6,2.6c0.4,0.7,0.9,1.1,1.6,1.1c0.5,0,0.9-0.2,1.2-0.6c0.3-0.4,0.5-1.1,0.5-2.1c0-1.2-0.3-2.2-0.8-2.9
			C64.3,4.4,63.8,4.1,63.2,4.1z"/>
		<path class="st0" d="M69.9,5.1c0.8-1,1.6-1.5,2.3-1.5c0.4,0,0.7,0.1,1,0.3c0.3,0.2,0.5,0.5,0.7,0.9C74,5.2,74,5.6,74,6.3v3
			c0,0.4,0,0.7,0.1,0.9c0.1,0.1,0.1,0.2,0.3,0.3c0.1,0.1,0.4,0.1,0.7,0.1v0.3h-3.5v-0.3h0.1c0.3,0,0.6,0,0.7-0.1
			c0.1-0.1,0.2-0.2,0.3-0.4c0-0.1,0-0.3,0-0.7V6.4c0-0.6-0.1-1.1-0.2-1.4c-0.2-0.3-0.4-0.4-0.8-0.4c-0.6,0-1.2,0.3-1.8,1v3.7
			c0,0.5,0,0.8,0.1,0.9c0.1,0.1,0.2,0.3,0.3,0.3c0.1,0.1,0.4,0.1,0.8,0.1v0.3h-3.5v-0.3h0.2c0.4,0,0.6-0.1,0.7-0.3
			c0.1-0.2,0.2-0.5,0.2-1V6.7c0-0.8,0-1.3-0.1-1.5c0-0.2-0.1-0.3-0.2-0.4c-0.1-0.1-0.2-0.1-0.3-0.1c-0.1,0-0.3,0-0.5,0.1l-0.1-0.3
			l2.1-0.9h0.3V5.1z"/>
		<path class="st0" d="M33,27.6v-0.3h0.4c0.4,0,0.7-0.1,0.9-0.4c0.1-0.2,0.2-0.5,0.2-1.1v-6.7c0-0.6-0.1-1-0.2-1.2
			c-0.2-0.2-0.5-0.3-0.9-0.3H33v-0.3h4.2c1.5,0,2.7,0.2,3.5,0.5c0.8,0.4,1.5,0.9,1.9,1.8c0.5,0.8,0.7,1.8,0.7,2.8
			c0,1.4-0.4,2.6-1.3,3.6c-1,1.1-2.5,1.6-4.5,1.6H33z M35.9,26.9c0.6,0.1,1.2,0.2,1.6,0.2c1.2,0,2.2-0.4,2.9-1.2
			c0.8-0.8,1.2-2,1.2-3.4c0-1.4-0.4-2.6-1.2-3.4c-0.8-0.8-1.8-1.2-3-1.2c-0.5,0-1,0.1-1.6,0.2V26.9z"/>
		<path class="st0" d="M46.9,20.4v5.6c0,0.4,0,0.7,0.1,0.9c0.1,0.1,0.2,0.3,0.3,0.3c0.1,0.1,0.4,0.1,0.7,0.1v0.3h-3.4v-0.3
			c0.3,0,0.6,0,0.7-0.1c0.1-0.1,0.2-0.2,0.3-0.3c0.1-0.2,0.1-0.4,0.1-0.9v-2.7c0-0.8,0-1.2-0.1-1.5c0-0.2-0.1-0.3-0.2-0.3
			c-0.1-0.1-0.2-0.1-0.3-0.1c-0.1,0-0.3,0-0.5,0.1l-0.1-0.3l2.1-0.9H46.9z M46.3,16.8c0.2,0,0.4,0.1,0.5,0.2
			c0.2,0.1,0.2,0.3,0.2,0.5c0,0.2-0.1,0.4-0.2,0.5c-0.1,0.2-0.3,0.2-0.5,0.2c-0.2,0-0.4-0.1-0.5-0.2c-0.2-0.2-0.2-0.3-0.2-0.5
			c0-0.2,0.1-0.4,0.2-0.5C45.9,16.9,46,16.8,46.3,16.8z"/>
		<path class="st0" d="M53.3,20.4v2.4h-0.3c-0.2-0.7-0.4-1.3-0.7-1.5c-0.3-0.3-0.7-0.4-1.2-0.4c-0.4,0-0.6,0.1-0.9,0.3
			c-0.2,0.2-0.3,0.4-0.3,0.6c0,0.3,0.1,0.5,0.2,0.7c0.2,0.2,0.5,0.4,1,0.7l1.1,0.5c1,0.5,1.5,1.2,1.5,2c0,0.6-0.2,1.1-0.7,1.5
			c-0.5,0.4-1,0.6-1.6,0.6c-0.4,0-0.9-0.1-1.5-0.2c-0.2-0.1-0.3-0.1-0.4-0.1c-0.1,0-0.2,0.1-0.3,0.2h-0.3v-2.5h0.3
			c0.1,0.7,0.4,1.2,0.8,1.6c0.4,0.4,0.9,0.5,1.3,0.5c0.4,0,0.6-0.1,0.9-0.3c0.2-0.2,0.3-0.5,0.3-0.7c0-0.3-0.1-0.6-0.4-0.9
			c-0.2-0.2-0.7-0.5-1.5-0.9c-0.7-0.4-1.2-0.7-1.4-1c-0.2-0.3-0.3-0.7-0.3-1.1c0-0.6,0.2-1.1,0.6-1.4c0.4-0.4,0.9-0.6,1.5-0.6
			c0.3,0,0.6,0.1,1,0.2c0.3,0.1,0.4,0.1,0.5,0.1c0.1,0,0.1,0,0.2-0.1c0,0,0.1-0.1,0.2-0.2H53.3z"/>
		<path class="st0" d="M56.9,18.4v2.3h1.6v0.5h-1.6v4.5c0,0.5,0.1,0.8,0.2,0.9c0.1,0.2,0.3,0.2,0.5,0.2c0.2,0,0.3-0.1,0.5-0.2
			c0.2-0.1,0.3-0.3,0.4-0.5h0.3c-0.2,0.5-0.4,0.9-0.8,1.1c-0.3,0.3-0.7,0.4-1,0.4c-0.2,0-0.5-0.1-0.7-0.2c-0.2-0.1-0.4-0.3-0.5-0.6
			c-0.1-0.2-0.2-0.6-0.2-1.1v-4.7h-1.1v-0.3c0.3-0.1,0.6-0.3,0.9-0.6c0.3-0.3,0.6-0.6,0.8-0.9c0.1-0.2,0.3-0.5,0.5-1.1H56.9z"/>
		<path class="st0" d="M61.3,20.4V22c0.6-1,1.2-1.6,1.8-1.6c0.3,0,0.5,0.1,0.7,0.3c0.2,0.2,0.3,0.4,0.3,0.6c0,0.2-0.1,0.4-0.2,0.5
			c-0.1,0.1-0.3,0.2-0.5,0.2c-0.2,0-0.4-0.1-0.6-0.3c-0.2-0.2-0.4-0.3-0.5-0.3c-0.1,0-0.2,0.1-0.3,0.2c-0.2,0.2-0.5,0.6-0.7,1V26
			c0,0.4,0,0.7,0.1,0.9c0.1,0.1,0.2,0.3,0.4,0.3c0.2,0.1,0.4,0.1,0.7,0.1v0.3h-3.6v-0.3c0.4,0,0.6-0.1,0.8-0.2
			c0.1-0.1,0.2-0.2,0.3-0.4c0-0.1,0-0.3,0-0.7v-2.7c0-0.8,0-1.3,0-1.5c0-0.2-0.1-0.3-0.2-0.3c-0.1-0.1-0.2-0.1-0.3-0.1
			c-0.2,0-0.3,0-0.5,0.1l-0.1-0.3l2.1-0.9H61.3z"/>
		<path class="st0" d="M66.8,20.4v5.6c0,0.4,0,0.7,0.1,0.9c0.1,0.1,0.2,0.3,0.3,0.3c0.1,0.1,0.4,0.1,0.7,0.1v0.3h-3.4v-0.3
			c0.3,0,0.6,0,0.7-0.1c0.1-0.1,0.2-0.2,0.3-0.3c0.1-0.2,0.1-0.4,0.1-0.9v-2.7c0-0.8,0-1.2-0.1-1.5c0-0.2-0.1-0.3-0.2-0.3
			c-0.1-0.1-0.2-0.1-0.3-0.1c-0.1,0-0.3,0-0.5,0.1l-0.1-0.3l2.1-0.9H66.8z M66.2,16.8c0.2,0,0.4,0.1,0.5,0.2
			c0.2,0.1,0.2,0.3,0.2,0.5c0,0.2-0.1,0.4-0.2,0.5c-0.1,0.2-0.3,0.2-0.5,0.2c-0.2,0-0.4-0.1-0.5-0.2c-0.2-0.2-0.2-0.3-0.2-0.5
			c0-0.2,0.1-0.4,0.2-0.5C65.8,16.9,66,16.8,66.2,16.8z"/>
		<path class="st0" d="M74.7,25c-0.2,0.9-0.6,1.6-1.1,2.1c-0.5,0.5-1.2,0.7-1.8,0.7c-0.8,0-1.5-0.3-2.1-1c-0.6-0.7-0.9-1.6-0.9-2.7
			c0-1.1,0.3-2,1-2.7c0.7-0.7,1.4-1,2.4-1c0.7,0,1.2,0.2,1.7,0.5c0.4,0.4,0.7,0.7,0.7,1.1c0,0.2-0.1,0.3-0.2,0.5
			c-0.1,0.1-0.3,0.2-0.5,0.2c-0.3,0-0.5-0.1-0.7-0.3c-0.1-0.1-0.1-0.3-0.2-0.6c0-0.3-0.1-0.5-0.3-0.7C72.4,21,72.2,21,71.9,21
			c-0.5,0-0.9,0.2-1.2,0.6c-0.4,0.5-0.6,1.2-0.6,2c0,0.8,0.2,1.6,0.6,2.2c0.4,0.6,1,1,1.7,1c0.5,0,0.9-0.2,1.3-0.5
			c0.3-0.2,0.6-0.7,0.8-1.3L74.7,25z"/>
		<path class="st0" d="M77.7,18.4v2.3h1.6v0.5h-1.6v4.5c0,0.5,0.1,0.8,0.2,0.9c0.1,0.2,0.3,0.2,0.5,0.2c0.2,0,0.3-0.1,0.5-0.2
			c0.2-0.1,0.3-0.3,0.4-0.5h0.3c-0.2,0.5-0.4,0.9-0.8,1.1c-0.3,0.3-0.7,0.4-1,0.4c-0.2,0-0.5-0.1-0.7-0.2c-0.2-0.1-0.4-0.3-0.5-0.6
			c-0.1-0.2-0.2-0.6-0.2-1.1v-4.7h-1.1v-0.3c0.3-0.1,0.6-0.3,0.9-0.6c0.3-0.3,0.6-0.6,0.8-0.9c0.1-0.2,0.3-0.5,0.5-1.1H77.7z"/>
		<path class="st0" d="M39.9,33.9v3.6h-0.3c-0.1-0.7-0.3-1.2-0.5-1.6c-0.2-0.4-0.6-0.7-1-1s-0.9-0.4-1.4-0.4c-0.5,0-1,0.2-1.3,0.5
			c-0.3,0.3-0.5,0.7-0.5,1.1c0,0.3,0.1,0.6,0.3,0.9c0.3,0.4,1.1,0.9,2.2,1.5c1,0.5,1.6,0.9,2,1.2c0.4,0.3,0.6,0.6,0.8,1
			c0.2,0.4,0.3,0.8,0.3,1.2c0,0.8-0.3,1.5-0.9,2c-0.6,0.6-1.4,0.8-2.3,0.8c-0.3,0-0.6,0-0.8-0.1c-0.2,0-0.5-0.1-1-0.3
			c-0.5-0.2-0.8-0.2-0.9-0.2c-0.1,0-0.2,0-0.3,0.1c-0.1,0.1-0.1,0.2-0.2,0.5h-0.3v-3.5h0.3c0.1,0.7,0.3,1.3,0.5,1.7
			c0.2,0.4,0.6,0.7,1,0.9c0.5,0.2,1,0.4,1.5,0.4c0.6,0,1.1-0.2,1.5-0.5c0.4-0.3,0.6-0.7,0.6-1.2c0-0.3-0.1-0.5-0.2-0.8
			c-0.1-0.3-0.4-0.5-0.7-0.7c-0.2-0.2-0.7-0.5-1.6-1c-0.9-0.5-1.5-0.9-1.9-1.2c-0.4-0.3-0.7-0.6-0.8-1c-0.2-0.4-0.3-0.7-0.3-1.2
			c0-0.7,0.3-1.4,0.9-1.9c0.6-0.5,1.3-0.8,2.2-0.8c0.5,0,1.1,0.1,1.7,0.4c0.3,0.1,0.5,0.2,0.6,0.2c0.1,0,0.2,0,0.3-0.1
			c0.1-0.1,0.2-0.2,0.2-0.5H39.9z"/>
		<path class="st0" d="M47.8,41.8c-0.2,0.9-0.6,1.6-1.1,2.1c-0.5,0.5-1.2,0.7-1.8,0.7c-0.8,0-1.5-0.3-2.1-1
			c-0.6-0.7-0.9-1.6-0.9-2.7c0-1.1,0.3-2,1-2.7c0.7-0.7,1.4-1,2.3-1c0.7,0,1.2,0.2,1.7,0.5c0.4,0.4,0.7,0.7,0.7,1.1
			c0,0.2-0.1,0.3-0.2,0.5c-0.1,0.1-0.3,0.2-0.5,0.2c-0.3,0-0.5-0.1-0.7-0.3c-0.1-0.1-0.1-0.3-0.2-0.6c0-0.3-0.1-0.5-0.3-0.7
			c-0.2-0.2-0.4-0.2-0.7-0.2c-0.5,0-0.9,0.2-1.2,0.6c-0.4,0.5-0.6,1.2-0.6,2c0,0.8,0.2,1.6,0.6,2.2c0.4,0.6,1,1,1.7,1
			c0.5,0,0.9-0.2,1.3-0.5c0.3-0.2,0.6-0.7,0.8-1.3L47.8,41.8z"/>
		<path class="st0" d="M50.9,33.6v5.1c0.6-0.6,1-1,1.3-1.2c0.3-0.2,0.7-0.3,1-0.3c0.4,0,0.7,0.1,1,0.3c0.3,0.2,0.5,0.6,0.6,1
			c0.1,0.3,0.1,0.9,0.1,1.8v2.5c0,0.4,0,0.7,0.1,0.9c0.1,0.1,0.1,0.2,0.3,0.3c0.1,0.1,0.3,0.1,0.7,0.1v0.3h-3.4v-0.3h0.2
			c0.3,0,0.6,0,0.7-0.1c0.1-0.1,0.2-0.2,0.3-0.4c0-0.1,0-0.3,0-0.7v-2.5c0-0.8,0-1.3-0.1-1.5c-0.1-0.2-0.2-0.4-0.4-0.5
			c-0.2-0.1-0.4-0.2-0.6-0.2c-0.2,0-0.5,0.1-0.8,0.2c-0.3,0.1-0.6,0.4-1,0.8v3.7c0,0.5,0,0.8,0.1,0.9c0.1,0.1,0.2,0.2,0.3,0.3
			c0.1,0.1,0.4,0.1,0.8,0.1v0.3h-3.5v-0.3c0.3,0,0.6,0,0.7-0.1c0.1-0.1,0.2-0.1,0.2-0.3c0.1-0.1,0.1-0.4,0.1-0.9v-6.3
			c0-0.8,0-1.3-0.1-1.5c0-0.2-0.1-0.3-0.2-0.4c-0.1-0.1-0.2-0.1-0.3-0.1c-0.1,0-0.3,0-0.5,0.1l-0.1-0.3l2.1-0.9H50.9z"/>
		<path class="st0" d="M60,37.2c1.1,0,1.9,0.4,2.5,1.2c0.5,0.7,0.8,1.5,0.8,2.4c0,0.6-0.1,1.3-0.5,1.9c-0.3,0.6-0.7,1.1-1.2,1.4
			c-0.5,0.3-1.1,0.5-1.8,0.5c-1.1,0-1.9-0.4-2.5-1.3c-0.5-0.7-0.8-1.5-0.8-2.4c0-0.6,0.2-1.3,0.5-1.9c0.3-0.6,0.7-1.1,1.3-1.4
			C58.9,37.4,59.4,37.2,60,37.2z M59.8,37.7c-0.3,0-0.5,0.1-0.8,0.2c-0.3,0.2-0.5,0.4-0.7,0.8c-0.2,0.4-0.3,0.9-0.3,1.5
			c0,1,0.2,1.9,0.6,2.6c0.4,0.7,0.9,1.1,1.6,1.1c0.5,0,0.9-0.2,1.2-0.6c0.3-0.4,0.5-1.1,0.5-2.1c0-1.2-0.3-2.2-0.8-2.9
			C60.8,38,60.3,37.7,59.8,37.7z"/>
		<path class="st0" d="M67.8,37.2c1.1,0,1.9,0.4,2.5,1.2c0.5,0.7,0.8,1.5,0.8,2.4c0,0.6-0.1,1.3-0.4,1.9c-0.3,0.6-0.7,1.1-1.2,1.4
			c-0.5,0.3-1.1,0.5-1.8,0.5c-1.1,0-1.9-0.4-2.5-1.3c-0.5-0.7-0.8-1.5-0.8-2.4c0-0.6,0.2-1.3,0.5-1.9c0.3-0.6,0.7-1.1,1.3-1.4
			C66.7,37.4,67.2,37.2,67.8,37.2z M67.6,37.7c-0.3,0-0.5,0.1-0.8,0.2c-0.3,0.2-0.5,0.4-0.7,0.8c-0.2,0.4-0.3,0.9-0.3,1.5
			c0,1,0.2,1.9,0.6,2.6c0.4,0.7,0.9,1.1,1.6,1.1c0.5,0,0.9-0.2,1.2-0.6c0.3-0.4,0.5-1.1,0.5-2.1c0-1.2-0.3-2.2-0.8-2.9
			C68.6,38,68.1,37.7,67.6,37.7z"/>
		<path class="st0" d="M74.6,33.6v9.3c0,0.4,0,0.7,0.1,0.9c0.1,0.1,0.2,0.3,0.3,0.3c0.1,0.1,0.4,0.1,0.7,0.1v0.3h-3.4v-0.3
			c0.3,0,0.5,0,0.7-0.1c0.1-0.1,0.2-0.2,0.3-0.3c0.1-0.2,0.1-0.4,0.1-0.9v-6.3c0-0.8,0-1.3-0.1-1.5c0-0.2-0.1-0.3-0.2-0.4
			c-0.1-0.1-0.2-0.1-0.3-0.1c-0.1,0-0.3,0-0.5,0.1l-0.1-0.3l2.1-0.9H74.6z"/>
		<path class="st0" d="M39.9,56c0.7,0.2,1.3,0.4,1.6,0.7c0.5,0.5,0.7,1,0.7,1.7c0,0.5-0.2,1-0.5,1.5c-0.3,0.5-0.8,0.8-1.3,1
			c-0.6,0.2-1.4,0.3-2.6,0.3H33v-0.3h0.4c0.4,0,0.7-0.1,0.9-0.4c0.1-0.2,0.2-0.6,0.2-1.1v-6.7c0-0.6-0.1-1-0.2-1.2
			c-0.2-0.2-0.5-0.3-0.9-0.3H33v-0.3h4.5c0.8,0,1.5,0.1,2,0.2c0.8,0.2,1.3,0.5,1.7,1c0.4,0.5,0.6,1,0.6,1.6c0,0.5-0.2,1-0.5,1.4
			C41,55.5,40.5,55.8,39.9,56z M35.9,55.5c0.2,0,0.4,0.1,0.6,0.1c0.2,0,0.5,0,0.8,0c0.7,0,1.3-0.1,1.7-0.2c0.4-0.2,0.7-0.4,0.9-0.7
			c0.2-0.3,0.3-0.7,0.3-1.1c0-0.6-0.2-1.1-0.7-1.5c-0.5-0.4-1.2-0.6-2.2-0.6c-0.5,0-1,0.1-1.4,0.2V55.5z M35.9,60.5
			c0.6,0.1,1.2,0.2,1.7,0.2c0.9,0,1.6-0.2,2.1-0.6c0.5-0.4,0.7-0.9,0.7-1.5c0-0.4-0.1-0.8-0.3-1.2c-0.2-0.4-0.6-0.7-1.1-0.9
			c-0.5-0.2-1.1-0.3-1.8-0.3c-0.3,0-0.6,0-0.8,0c-0.2,0-0.4,0-0.5,0.1V60.5z"/>
		<path class="st0" d="M47,54c1.1,0,1.9,0.4,2.5,1.2c0.5,0.7,0.8,1.5,0.8,2.4c0,0.6-0.1,1.3-0.4,1.9c-0.3,0.6-0.7,1.1-1.2,1.4
			c-0.5,0.3-1.1,0.5-1.8,0.5c-1.1,0-1.9-0.4-2.5-1.3c-0.5-0.7-0.8-1.5-0.8-2.4c0-0.6,0.2-1.3,0.5-1.9c0.3-0.6,0.7-1.1,1.3-1.4
			C45.9,54.2,46.5,54,47,54z M46.8,54.5c-0.3,0-0.5,0.1-0.8,0.2c-0.3,0.2-0.5,0.4-0.7,0.8c-0.2,0.4-0.3,0.9-0.3,1.5
			c0,1,0.2,1.9,0.6,2.6c0.4,0.7,0.9,1.1,1.6,1.1c0.5,0,0.9-0.2,1.2-0.6c0.3-0.4,0.5-1.1,0.5-2.1c0-1.2-0.3-2.2-0.8-2.9
			C47.8,54.8,47.4,54.5,46.8,54.5z"/>
		<path class="st0" d="M55.4,60.2c-0.7,0.6-1.2,0.9-1.3,1c-0.3,0.1-0.6,0.2-0.9,0.2c-0.5,0-0.9-0.2-1.2-0.5
			c-0.3-0.3-0.5-0.8-0.5-1.3c0-0.3,0.1-0.6,0.2-0.9c0.2-0.3,0.6-0.7,1.1-1c0.5-0.3,1.4-0.7,2.6-1.1v-0.3c0-0.7-0.1-1.2-0.3-1.4
			c-0.2-0.3-0.5-0.4-1-0.4c-0.3,0-0.6,0.1-0.8,0.3c-0.2,0.2-0.3,0.4-0.3,0.6l0,0.4c0,0.2-0.1,0.4-0.2,0.5c-0.1,0.1-0.3,0.2-0.5,0.2
			c-0.2,0-0.3-0.1-0.5-0.2c-0.1-0.1-0.2-0.3-0.2-0.5c0-0.4,0.2-0.8,0.7-1.2c0.4-0.4,1.1-0.5,1.9-0.5c0.6,0,1.1,0.1,1.5,0.3
			c0.3,0.2,0.5,0.4,0.7,0.7c0.1,0.2,0.1,0.7,0.1,1.3v2.4c0,0.7,0,1.1,0,1.2c0,0.2,0.1,0.2,0.1,0.3c0.1,0.1,0.1,0.1,0.2,0.1
			c0.1,0,0.2,0,0.2-0.1c0.1-0.1,0.3-0.3,0.6-0.6v0.4c-0.6,0.8-1.1,1.1-1.6,1.1c-0.2,0-0.4-0.1-0.6-0.3
			C55.5,60.9,55.4,60.6,55.4,60.2z M55.4,59.7v-2.7c-0.8,0.3-1.3,0.5-1.5,0.6c-0.4,0.2-0.7,0.5-0.9,0.7c-0.2,0.2-0.3,0.5-0.3,0.8
			c0,0.4,0.1,0.7,0.3,0.9c0.2,0.2,0.5,0.4,0.8,0.4C54.2,60.5,54.7,60.2,55.4,59.7z"/>
		<path class="st0" d="M60.4,54v1.6c0.6-1,1.2-1.6,1.8-1.6c0.3,0,0.5,0.1,0.7,0.3c0.2,0.2,0.3,0.4,0.3,0.6c0,0.2-0.1,0.4-0.2,0.5
			c-0.1,0.1-0.3,0.2-0.5,0.2c-0.2,0-0.4-0.1-0.6-0.3c-0.2-0.2-0.4-0.3-0.5-0.3c-0.1,0-0.2,0.1-0.3,0.2c-0.2,0.2-0.5,0.6-0.7,1v3.3
			c0,0.4,0,0.7,0.1,0.9c0.1,0.1,0.2,0.3,0.4,0.3c0.2,0.1,0.4,0.1,0.7,0.1v0.3H58V61c0.4,0,0.6-0.1,0.8-0.2c0.1-0.1,0.2-0.2,0.3-0.4
			c0-0.1,0-0.3,0-0.7V57c0-0.8,0-1.3,0-1.5c0-0.2-0.1-0.3-0.2-0.3c-0.1-0.1-0.2-0.1-0.3-0.1c-0.2,0-0.3,0-0.5,0.1L58,54.9l2.1-0.9
			H60.4z"/>
		<path class="st0" d="M68.5,60.4c-0.3,0.4-0.7,0.6-1,0.8c-0.3,0.2-0.7,0.2-1.1,0.2c-0.8,0-1.4-0.3-2-1c-0.6-0.6-0.9-1.5-0.9-2.5
			c0-1,0.3-1.9,0.9-2.7c0.6-0.8,1.4-1.2,2.4-1.2c0.6,0,1.1,0.2,1.5,0.6v-1.3c0-0.8,0-1.3-0.1-1.5c0-0.2-0.1-0.3-0.2-0.4
			c-0.1-0.1-0.2-0.1-0.3-0.1c-0.1,0-0.3,0-0.5,0.1l-0.1-0.3l2.1-0.9h0.3v8.1c0,0.8,0,1.3,0.1,1.5c0,0.2,0.1,0.3,0.2,0.4
			c0.1,0.1,0.2,0.1,0.3,0.1c0.1,0,0.3,0,0.5-0.1l0.1,0.3l-2.1,0.9h-0.3V60.4z M68.5,59.9v-3.6c0-0.3-0.1-0.7-0.3-0.9
			c-0.2-0.3-0.4-0.5-0.6-0.6c-0.3-0.1-0.5-0.2-0.7-0.2c-0.4,0-0.8,0.2-1.2,0.6c-0.5,0.5-0.7,1.3-0.7,2.3c0,1,0.2,1.8,0.7,2.4
			c0.4,0.5,0.9,0.8,1.5,0.8C67.6,60.6,68,60.4,68.5,59.9z"/>
	</g>
	<g>
		<circle class="st0" cx="13.4" cy="49.1" r="5.5"/>
		<path class="st0" d="M21.8,54.3"/>
		<line class="st0" x1="4.6" y1="51.1" x2="4.6" y2="49.1"/>
		<g>
			<path class="st0" d="M21.9,66.4"/>
			<path class="st0" d="M12.9,60.2c-4.6,0-8.3,3.7-8.3,8.3l0,0l0,13.1H0v-81h4.6l0,48.5c0,4.6,4.1,8.2,8.8,8.2
				c4.6,0,8.4-3.8,8.4-8.4l0,0.3L21.5,0.5h4.6v81h-4.6V69l0-0.6l0,0C21.5,63.8,17.5,60.2,12.9,60.2"/>
		</g>
	</g>
</g>
</svg>
