{"asset":{"version":"2.0","generator":"THREE.GLTFExporter"},"scenes":[{"name":"AuxScene","nodes":[2]}],"scene":0,"nodes":[{},{"mesh":0,"children":[0]},{"children":[1]}],"bufferViews":[{"buffer":0,"byteOffset":0,"byteLength":288000,"target":34962,"byteStride":12},{"buffer":0,"byteOffset":288000,"byteLength":288000,"target":34962,"byteStride":12}],"buffers":[{"byteLength":576000,"uri":"data:application/octet-stream;base64,"}],"accessors":[{"bufferView":0,"componentType":5126,"count":24000,"max":[4.882693290710449,3.8107664585113525,2.591085195541382],"min":[-4.597116470336914,-4.09224271774292,-2.9393467903137207],"type":"VEC3"},{"bufferView":1,"componentType":5126,"count":24000,"max":[0.24228112399578094,0.6172065734863281,0.9559733271598816],"min":[0.24228112399578094,0.6172065734863281,0.9559733271598816],"type":"VEC3"}],"materials":[{"pbrMetallicRoughness":{"metallicFactor":0,"roughnessFactor":0.9},"doubleSided":true,"extensions":{"KHR_materials_unlit":{}}}],"meshes":[{"primitives":[{"mode":4,"attributes":{"POSITION":0,"COLOR_0":1},"material":0}]}],"extensionsUsed":["KHR_materials_unlit"]}